<?xml version="1.0" encoding="utf-8" ?>
<svg xmlns="http://www.w3.org/2000/svg" xmlns:xlink="http://www.w3.org/1999/xlink" width="1024" height="1024">
	<defs>
		<linearGradient id="gradient_0" gradientUnits="userSpaceOnUse" x1="446.47977" y1="324.29892" x2="136.99736" y2="389.88956">
			<stop offset="0" stop-color="#618AFE"/>
			<stop offset="1" stop-color="#98B7F3"/>
		</linearGradient>
	</defs>
	<path fill="url(#gradient_0)" transform="scale(1.6 1.6)" d="M97.9627 204.074L118.253 183.707C124.289 177.813 130.166 171.052 137.563 166.856C149.747 159.945 168.054 160.97 178.349 170.76C184.893 176.983 190.079 184.896 195.26 192.231L231.105 242.866C249.524 269.654 244.445 283.291 223.466 304.232L209.95 318.004C199.516 329.04 200.558 327.863 208.323 341.454L218.639 358.236C240.808 390.871 268.979 416.819 304.748 433.426L315.379 437.39C328.097 429.797 336.689 417.25 348.884 409.016C374.581 391.667 391.586 405.573 411.925 419.844L436.459 436.756C451.572 447.207 476.752 458.428 479.693 478.125L479.776 478.651C483.13 501.496 466.427 512.877 452.27 527.42C443.552 536.376 435.276 546.189 425.383 553.876L351.651 490.66C341.021 481.631 331.488 471.256 320.384 462.821C308.884 454.085 296.005 448.088 283.765 440.598C244.699 416.693 204.925 376.163 186.058 333.803L180.945 321.202C174.594 303.865 177.561 310.134 166.398 296.833L157.468 285.598C139.259 263.64 120.957 241.411 105.251 217.556C102.997 214.132 99.6898 210.029 98.4033 206.151L98.2352 205.625C97.9398 204.951 97.9668 204.82 97.9627 204.074Z"/>
	<defs>
		<linearGradient id="gradient_1" gradientUnits="userSpaceOnUse" x1="395.85654" y1="363.52588" x2="94.26844" y2="408.31818">
			<stop offset="0" stop-color="#91AFFF"/>
			<stop offset="1" stop-color="#B4EFF3"/>
		</linearGradient>
	</defs>
	<path fill="url(#gradient_1)" transform="scale(1.6 1.6)" d="M425.383 553.876C420.104 558.1 413.611 560.712 407.282 562.936C351.098 582.682 294.513 540.275 251.08 508.895C242.144 502.439 233.609 495.345 225.255 488.166L212.5 477.208L163.136 428.132C148.958 412.317 135.831 394.988 123.649 377.6L115.334 366.094C88.0718 326.61 53.2807 263.302 85.8631 217.132C89.231 212.359 93.8362 208.202 97.9627 204.074C97.9668 204.82 97.9398 204.951 98.2352 205.625L98.4033 206.151C99.6898 210.029 102.997 214.132 105.251 217.556C120.957 241.411 139.259 263.64 157.468 285.598L166.398 296.833C177.561 310.134 174.594 303.865 180.945 321.202L186.058 333.803C204.925 376.163 244.699 416.693 283.765 440.598C296.005 448.088 308.884 454.085 320.384 462.821C331.488 471.256 341.021 481.631 351.651 490.66L425.383 553.876Z"/>
	<defs>
		<linearGradient id="gradient_2" gradientUnits="userSpaceOnUse" x1="559.70813" y1="212.55455" x2="275.53198" y2="226.86017">
			<stop offset="0" stop-color="#6B8AFD"/>
			<stop offset="1" stop-color="#9BC3F5"/>
		</linearGradient>
	</defs>
	<path fill="url(#gradient_2)" transform="scale(1.6 1.6)" d="M414.257 87.0327L434.947 87.6806C490.634 92.0413 545.513 132.011 557.641 187.924C565.504 224.176 556.236 262.938 533.277 292.029C500.374 333.72 443.031 353.244 390.911 348.658C384.514 347.773 378.211 346.558 371.963 344.917L357.338 340.613C347.303 337.513 349.404 338.809 340.746 343.185L313.936 356.325C303.168 361.403 287.54 357.428 285.036 344.375C283.898 338.44 286.12 330.985 287.333 325.141L293.904 294.818C296.011 282.281 292.406 283.365 287.131 272.206C264.789 224.937 272.458 171.465 308.205 133.104C335.635 103.668 374.431 88.4206 414.257 87.0327ZM431.749 146.367C408.893 148.986 386.717 164.697 372.677 182.374C352.651 207.588 340.041 253.277 369.644 276.59C379.483 284.339 391.088 286.241 403.305 284.732L403.652 284.685C446.162 275.916 491.439 225.698 481.93 181.483C476.737 157.339 455.497 144.521 431.749 146.367Z"/>
	<path fill="#88ABF7" transform="scale(1.6 1.6)" d="M433.04 162.924C438.458 162.449 444.387 162.573 449.485 164.707L450 164.93C461.856 169.946 466.597 181.019 466.598 193.086C466.6 227.182 433.831 261.057 402.111 268.581L401.276 268.743C377.888 272.809 364.808 250.629 368.53 229.415C373.94 198.582 401.97 168.012 433.04 162.924Z"/>
</svg>
