<?xml version="1.0" encoding="utf-8" ?>
<svg xmlns="http://www.w3.org/2000/svg" xmlns:xlink="http://www.w3.org/1999/xlink" width="1024" height="1024">
	<path fill="#7294F7" transform="scale(1.6 1.6)" d="M355.524 198.013C349.065 188.119 350.873 177.111 350.842 166.04L350.888 103.807C351.009 100.76 351.073 97.54 351.679 94.5484C355.188 77.2354 376.581 69.4931 390.781 81.5648C398.14 87.8211 404.564 95.2281 411.371 102.064L474.531 166.458C490.348 182.331 499.992 193.383 483.673 213.141C469.82 226.876 445.068 223.487 427.217 223.471L409.253 223.475C385.894 223.457 374.292 220.208 359.478 202.623C358.329 201.258 357.194 199.388 355.837 198.264L355.524 198.013Z"/>
	<path fill="#A0C3F7" transform="scale(1.6 1.6)" d="M483.673 213.141C492.379 220.199 501.008 234.34 503.448 244.864L503.549 245.308C505.454 253.559 505.188 262.907 505.251 271.342L502.245 270.802C497.236 269.873 491.867 269.999 486.775 269.992L256.288 269.984C230.053 269.925 212.973 269.636 190 284.691C163.387 302.131 153.547 324.488 145.669 353.615L136.109 388.77L112.237 459.08L101.276 487.28C100.568 489.002 100.128 491.315 99.0197 492.752L98.3725 492.096C97.5628 489.008 97.6753 485.502 97.6712 482.335L97.6781 142.75C97.6772 138.528 97.3247 134.244 97.6485 130.036C99.5542 105.266 117.282 83.7388 140.985 76.4062C150.606 73.4302 160.128 73.2043 170.098 73.1944L286.318 73.1708C298.562 73.6854 310.278 77.8623 322.477 74.9292C318.857 77.4933 313.498 77.7602 309.244 78.0878L329.102 87.1704L330.351 83.9569C331.75 80.1372 334.156 75.576 338.05 73.8049L338.375 73.6591C339.776 72.9944 341.645 72.1393 343.212 72.0855C339.319 78.9316 338.628 86.2029 338.219 93.9062L338.32 146.406C338.956 165.403 339.395 184.696 354.989 198.173L355.524 198.013L355.837 198.264C357.194 199.388 358.329 201.258 359.478 202.623C374.292 220.208 385.894 223.457 409.253 223.475L427.217 223.471C445.068 223.487 469.82 226.876 483.673 213.141ZM182.108 102.963C166.984 103.353 148.391 102.063 136.925 113.943C132.297 118.737 128.958 124.702 129.123 131.534L129.263 134.336C139.319 130.923 145.667 121.779 155.625 118.5C161.334 116.621 168.274 117.28 174.219 117.097L260.469 116.804L278.786 116.792C285.585 116.912 292.265 116.849 298.505 119.923L299.059 120.191C304.744 123.014 309.713 128.169 314.288 132.49C314.069 127.804 314.9 122.115 313.331 117.679C308.046 102.733 285.011 102.886 272.487 102.878L182.108 102.963Z"/>
	<defs>
		<linearGradient id="gradient_0" gradientUnits="userSpaceOnUse" x1="503.19424" y1="525.5141" x2="183.70172" y2="325.8273">
			<stop offset="0" stop-color="#7597FC"/>
			<stop offset="1" stop-color="#99C1F6"/>
		</linearGradient>
	</defs>
	<path fill="url(#gradient_0)" transform="scale(1.6 1.6)" d="M452.663 296.719L503.565 296.922C510.982 296.915 518.417 296.219 525.762 297.561C550.669 302.111 567.919 321.588 567.887 347.233C567.869 362.116 561.563 376.218 556.538 389.946L523.108 482.353C512.794 511.092 504.628 539.197 470.086 545.88C459.186 547.989 447.745 547.236 436.687 547.238L226.094 547.213L181.876 547.239C161.699 547.24 139.728 549.03 123.558 534.562C107.24 519.961 109.641 510.356 115.773 491.482L168.719 356.093C178.635 330.856 190.975 306.108 219.74 299.053C231.09 296.269 242.788 296.901 254.382 296.897L452.663 296.719Z"/>
	<path fill="white" transform="scale(1.6 1.6)" d="M223.993 331.58L224.134 331.706C223.506 332.813 222.134 333.055 221.562 334.222L222.091 334.437C222.376 336.779 218.821 338.069 218.203 340.234L219.062 339.611C219.701 339.256 220.193 338.822 220.806 338.413L222.5 337.344C222.979 337.024 222.625 337.179 223.091 337.003L225.156 336.451C221.463 338.051 217.247 340.991 214.846 344.251L208.861 353.955C207.373 356.804 206.227 360.106 204.468 362.767C208.089 350.781 213.503 339.026 223.993 331.58Z"/>
</svg>
