<?xml version="1.0" encoding="utf-8" ?>
<svg xmlns="http://www.w3.org/2000/svg" xmlns:xlink="http://www.w3.org/1999/xlink" width="1024" height="1024">
	<path fill="#7294F7" transform="scale(1.6 1.6)" d="M447.34 322.99L447.642 322.966C452.552 322.607 457.45 322.903 462.344 323.314C530.493 329.027 581.648 393.158 565.944 461.406C553.936 513.591 508.372 549.672 455.589 552.346C427.973 553.752 397.89 543.184 376.645 525.574C308.099 468.753 327.914 362.107 411.505 330.527C423.374 326.043 434.727 323.977 447.34 322.99ZM492.439 396.062C478.959 397.386 470.723 408.483 461.529 417.246L445.194 432.28C439.447 437.681 438.418 442.448 432.838 438.388C424.773 432.521 415.764 427.558 405.408 430.139L404.871 430.269C390.854 433.837 383.828 449.251 387.736 462.701C390.182 471.119 406.516 485.5 413.626 491.089C425.498 501.109 442.541 504.452 455.999 495.726C462.655 491.411 468.252 485.259 473.924 479.778L497.249 457.007C505.179 449.089 518.355 439.885 520.008 427.969L520.09 427.437C522.756 409.59 510.902 395 492.439 396.062Z"/>
	<path fill="#7294F7" transform="scale(1.6 1.6)" d="M494.331 412.301C505.373 412.352 506.391 423.508 499.959 430.814C497.206 433.94 494.078 436.818 491.106 439.738L456.562 473.436C444.174 485.095 435.599 489.123 422.724 476.722L413.651 468.102C410.025 464.932 404.548 460.507 403.624 455.469C402.541 449.567 406.368 446.2 411.904 445.472C420.393 444.356 423.857 452.158 429.556 456.385L429.924 456.648C437.612 462.215 439.62 459.098 446.094 453.382L480.048 421.584C484.409 417.546 488.158 413.198 494.331 412.301Z"/>
	<defs>
		<linearGradient id="gradient_0" gradientUnits="userSpaceOnUse" x1="406.66763" y1="484.89948" x2="133.44443" y2="91.15554">
			<stop offset="0" stop-color="#6D86FD"/>
			<stop offset="1" stop-color="#B7F1F3"/>
		</linearGradient>
	</defs>
	<path fill="url(#gradient_0)" transform="scale(1.6 1.6)" d="M153.207 87.6695L415.768 87.6795C419.998 87.9548 424.374 88.2243 428.509 89.1877C449.062 93.9759 467.987 113.294 472.236 134.075C474.207 143.716 473.46 153.985 473.463 163.791L473.471 266.596C473.469 279.927 473.824 293.329 472.957 306.636L452.971 306.055C371.775 306.831 305.799 379.515 320.689 460.717C323.518 477.039 328.814 491.782 337.525 505.938L344.128 516.047C352.477 528.653 345.68 530.296 335.109 529.979L168.33 529.957C160.317 529.963 152.782 530.146 144.801 529.008C119.666 525.424 99.5079 503.333 96.5222 478.397C95.3241 468.391 95.4844 458.297 95.4752 448.239L95.4703 165.223C95.4809 156.614 95.3093 148.078 96.5688 139.531C100.657 111.791 124.911 88.7799 153.207 87.6695ZM174.448 465.158C172.14 465.213 169.493 465.04 167.344 465.943L166.911 466.121C162.371 468.132 160.543 472.75 162.623 477.065C165.894 483.851 174.308 481.663 180.339 481.627L280.066 481.541C300.884 481.523 294.776 466.152 285.46 465.088C281.053 464.584 276.231 464.966 271.782 464.969L174.448 465.158ZM169.089 421.043C160.117 422.899 158.361 431.256 165.909 437.256L287.769 437.187C292.196 435.903 294.612 432.505 295.778 428.304C294.098 424.181 290.858 420.96 286.25 420.953L180.606 421.1C176.88 421.098 172.773 420.72 169.089 421.043Z"/>
	<path fill="white" transform="scale(1.6 1.6)" d="M232.671 157.289C237.048 156.798 252.658 156.511 256.407 157.693C264.41 160.217 265.416 162.936 262.706 170.529C260.051 170.806 257.323 170.56 254.653 170.55L237.494 170.373L237.51 189.849L259.815 191.026C261.195 194.016 260.696 199.247 260.435 202.476L237.351 203.434L237.516 215.596C237.554 218.866 236.396 224.406 240.547 224.997L254.891 224.742C257.51 224.705 261.112 224.368 263.526 225.444C269.645 228.172 268.249 237.286 261.98 238.834C258.134 239.784 234.739 238.731 230.61 238.244C220.804 237.088 223.056 230.304 223.03 222.361L223.272 178.761C223.405 169.305 219.814 159.066 232.671 157.289Z"/>
	<path fill="white" transform="scale(1.6 1.6)" d="M171.199 376.389L279.807 376.399C283.204 376.396 286.695 376.101 290.077 376.265C298.176 376.657 303.014 391.139 288.225 392.761L184.758 392.843C179.44 392.841 173.975 393.086 168.676 392.702C158.978 392 158.376 377.232 171.199 376.389Z"/>
	<path fill="white" transform="scale(1.6 1.6)" d="M383.64 156.7C397.863 155.422 416.619 171.397 402.344 177.505C399.403 178.763 396.678 175.444 394.544 173.845C386.772 168.025 369.095 170.648 373.228 183.259C375.668 190.705 384.054 190.736 390.111 193.676C400.251 198.599 407.866 209.732 404.859 221.303L404.701 221.875C401.16 235.072 389.288 240.984 376.254 241.302C370.742 241.303 351.089 239.757 353.122 230.56L353.222 230.156C356.774 215.289 364.458 222.609 371.945 226.489C380.943 231.151 392.387 225.246 390.896 214.844C389.801 207.209 381.758 205.942 375.775 203.664C347.453 192.882 354.821 159.018 383.64 156.7Z"/>
	<path fill="white" transform="scale(1.6 1.6)" d="M198.682 332.97C209.956 333.611 221.478 333.164 232.777 333.168L309.822 333.132C318.768 333.003 327.192 330.707 331.352 340.584C330.733 343.424 329.036 345.558 326.716 347.25L325.462 348.183C322.947 349.818 317.652 348.719 314.765 348.708L294.141 348.632L179.357 348.681C174.31 348.689 161.301 350.623 160.913 342.077C160.459 332.044 171.837 333.183 178.103 333.163L198.682 332.97Z"/>
	<path fill="white" transform="scale(1.6 1.6)" d="M197.732 288.908L315.44 289.016C322.63 289.014 335.074 287.045 337.009 296.719C334.838 305.543 327.805 304.408 320.725 304.417L299.609 304.274L175.523 304.422C170.469 304.607 161.986 304.606 161.406 297.193C160.678 287.886 175.138 289.043 180.36 289.032L197.732 288.908Z"/>
	<path fill="white" transform="scale(1.6 1.6)" d="M208.083 156.333C210.891 156.117 213.228 156.576 215.849 157.541L216.077 218.909C216.072 222.945 216.224 227.075 215.852 231.094C215.254 237.536 208.549 240.12 204.844 237.114C201.666 234.536 199.183 230.199 196.8 226.9L177 198.586C174.097 194.373 171.555 189.746 168.204 185.885L169.013 227.763C169.003 232.449 168.675 236.753 163.366 238.12L162.969 238.216C161.601 238.568 160.572 238.227 159.243 237.863C158.097 237.307 156.938 236.669 156.19 235.607L155.993 235.312C155.175 234.111 155.007 232.85 154.975 231.421L154.986 172.482C155.001 164.424 153.446 157.052 164.531 157.188C172.748 161.791 198.398 205.715 203.272 214.453C202.211 202.354 202.471 190.347 202.477 178.211C202.481 170.571 199.328 157.76 208.083 156.333Z"/>
	<path fill="white" transform="scale(1.6 1.6)" d="M281.223 156.056C282.53 156.015 284.451 156.022 285.625 156.607C290.49 159.033 298.063 191.247 299.887 197.8C304.675 191.067 308.828 170.667 318.75 171.282C322.006 173.438 324.231 177.374 325.26 181.113L328.524 192.351C329.929 189.685 330.802 186.709 331.871 183.895L337.843 168.126C339.003 165.049 340.212 160.134 342.571 157.906C347.562 156.987 352.369 157.377 356.752 160.009L339.643 207.147C337.55 215.534 337.713 223.6 337.804 232.166C329.338 240.54 330.472 233.532 327.153 225.002L316.649 196.492L309.489 217.008C307.992 222.094 306.578 235.845 302.188 238.811C293.757 239.067 293.346 228.419 292.073 222.441L279.159 178.925C277.325 173.35 275.291 167.63 274.304 161.836C273.51 157.172 277.499 156.491 281.223 156.056Z"/>
</svg>
